<svg width="16" height="16" viewBox="0 0 16 16" fill="none" xmlns="http://www.w3.org/2000/svg">
    <path d="M14 8.00001C14 9.17193 13.6569 10.3182 13.0129 11.2973C12.3689 12.2764 11.4522 13.0455 10.3761 13.5096C9.30001 13.9737 8.11155 14.1125 6.95746 13.9089C5.80337 13.7053 4.73417 13.1681 3.88188 12.3638C3.83411 12.3186 3.7957 12.2645 3.76884 12.2045C3.74198 12.1445 3.7272 12.0799 3.72535 12.0142C3.72349 11.9485 3.73459 11.883 3.75802 11.8216C3.78144 11.7602 3.81673 11.704 3.86188 11.6563C3.95304 11.5598 4.0788 11.5035 4.21148 11.4997C4.27718 11.4979 4.3426 11.509 4.40401 11.5324C4.46542 11.5558 4.52161 11.5911 4.56938 11.6363C5.28421 12.3106 6.18193 12.7594 7.15037 12.9265C8.11881 13.0936 9.11501 12.9716 10.0145 12.5758C10.914 12.1799 11.6769 11.5278 12.2079 10.7008C12.7389 9.87386 13.0144 8.90877 13 7.92613C12.9856 6.94349 12.6819 5.98688 12.127 5.17582C11.572 4.36476 10.7904 3.73523 9.87967 3.36588C8.96897 2.99654 7.96962 2.90375 7.00649 3.09913C6.04336 3.2945 5.15916 3.76936 4.46438 4.46439C4.24375 4.68751 4.03625 4.90689 3.83438 5.12501L4.85375 6.14626C4.92376 6.21619 4.97144 6.30532 4.99076 6.40236C5.01009 6.4994 5.00019 6.6 4.96231 6.69141C4.92444 6.78282 4.86029 6.86094 4.77799 6.91587C4.69569 6.97081 4.59895 7.00009 4.5 7.00001H2C1.86739 7.00001 1.74021 6.94733 1.64645 6.85357C1.55268 6.7598 1.5 6.63262 1.5 6.50001V4.00001C1.49992 3.90106 1.5292 3.80432 1.58414 3.72202C1.63908 3.63972 1.71719 3.57558 1.80861 3.5377C1.90002 3.49983 2.00061 3.48992 2.09765 3.50925C2.1947 3.52857 2.28382 3.57626 2.35375 3.64626L3.125 4.41876C3.32625 4.20064 3.53375 3.98126 3.75375 3.75939C4.59255 2.91915 5.66178 2.34666 6.82609 2.11437C7.99041 1.88209 9.19746 2.00044 10.2945 2.45447C11.3915 2.90849 12.3292 3.67777 12.9888 4.66493C13.6484 5.65209 14.0003 6.81275 14 8.00001Z"
          fill="currentColor"/>
</svg>
