<svg width="16" height="16" viewBox="0 0 16 16" fill="none" xmlns="http://www.w3.org/2000/svg">
    <g clip-path="url(#clip0_1582_2702)">
        <path d="M7.46188 10.8088C7.49977 10.9001 7.50973 11.0007 7.49048 11.0977C7.47124 11.1947 7.42365 11.2838 7.35375 11.3538L5.35375 13.3538C5.30731 13.4003 5.25217 13.4371 5.19147 13.4623C5.13077 13.4875 5.06571 13.5004 5 13.5004C4.93429 13.5004 4.86923 13.4875 4.80853 13.4623C4.74783 13.4371 4.69269 13.4003 4.64625 13.3538L2.64625 11.3538C2.57625 11.2838 2.52856 11.1947 2.50924 11.0977C2.48991 11.0006 2.49981 10.9 2.53769 10.8086C2.57557 10.7172 2.63971 10.6391 2.72201 10.5842C2.80431 10.5292 2.90105 10.4999 3 10.5H4.5V3.00003C4.5 2.86742 4.55268 2.74024 4.64645 2.64647C4.74022 2.55271 4.86739 2.50003 5 2.50003C5.13261 2.50003 5.25979 2.55271 5.35355 2.64647C5.44732 2.74024 5.5 2.86742 5.5 3.00003V10.5H7C7.09889 10.5 7.19555 10.5294 7.27777 10.5843C7.35998 10.6393 7.42405 10.7174 7.46188 10.8088ZM13.3538 4.64628L11.3538 2.64628C11.3073 2.59979 11.2522 2.56291 11.1915 2.53775C11.1308 2.51259 11.0657 2.49963 11 2.49963C10.9343 2.49963 10.8692 2.51259 10.8085 2.53775C10.7478 2.56291 10.6927 2.59979 10.6463 2.64628L8.64625 4.64628C8.57625 4.7162 8.52856 4.80533 8.50924 4.90237C8.48991 4.99942 8.49981 5.10001 8.53769 5.19142C8.57557 5.28283 8.63971 5.36095 8.72201 5.41589C8.80431 5.47082 8.90105 5.50011 9 5.50003H10.5V13C10.5 13.1326 10.5527 13.2598 10.6464 13.3536C10.7402 13.4473 10.8674 13.5 11 13.5C11.1326 13.5 11.2598 13.4473 11.3536 13.3536C11.4473 13.2598 11.5 13.1326 11.5 13V5.50003H13C13.0989 5.50011 13.1957 5.47082 13.278 5.41589C13.3603 5.36095 13.4244 5.28283 13.4623 5.19142C13.5002 5.10001 13.5101 4.99942 13.4908 4.90237C13.4714 4.80533 13.4238 4.7162 13.3538 4.64628Z" fill="currentColor"/>
    </g>
</svg>
