<svg width="16" height="16" viewBox="0 0 16 16" fill="none" xmlns="http://www.w3.org/2000/svg">
    <path fill-rule="evenodd" clip-rule="evenodd"
          d="M8 16C12.4183 16 16 12.4183 16 8C16 3.58172 12.4183 0 8 0C3.58172 0 0 3.58172 0 8C0 12.4183 3.58172 16 8 16ZM5.33412 4.8194C6.41333 5.5905 7.57373 7.15454 8 7.99393C8.42628 7.15493 9.58667 5.5909 10.6659 4.81861C11.6996 4.08007 12.0937 4.20793 12.3522 4.32625C12.6514 4.46324 12.7059 4.9282 12.7059 5.20217C12.7059 5.47535 12.5576 7.44558 12.4612 7.77435C12.1416 8.86072 11.0051 9.228 9.95804 9.11007C9.90471 9.10213 9.8502 9.09459 9.79529 9.08784C9.84936 9.09657 9.90362 9.10398 9.95804 9.11007C11.4922 9.34037 12.7059 10.2099 11.0325 11.9205C8.98177 13.7339 8.45384 11.8357 8.09144 10.5327C8.06001 10.4197 8.02983 10.3112 8 10.2099L7.99609 10.2232C7.6212 11.4959 6.8912 13.9741 4.93216 11.9205C3.1451 9.90619 4.50784 9.34037 6.04196 9.11007C6.09647 9.10372 6.15059 9.09657 6.20471 9.08784C6.1498 9.09459 6.09529 9.10213 6.04196 9.11007C4.9949 9.2276 3.85843 8.86072 3.53882 7.77435C3.44235 7.44519 3.29412 5.47575 3.29412 5.20178C3.29412 4.9286 3.34863 4.46324 3.64784 4.32705C3.90627 4.20832 4.30039 4.08047 5.33412 4.8194Z"
          fill="currentColor"/>
</svg>
