<svg width="16" height="16" viewBox="0 0 16 16" fill="none" xmlns="http://www.w3.org/2000/svg">
    <g clip-path="url(#clip0_1582_2700)">
        <path d="M13.4619 5.80875C13.424 5.71738 13.36 5.63928 13.2778 5.58432C13.1956 5.52936 13.0989 5.50002 13 5.5H3C2.90105 5.49992 2.80431 5.5292 2.72201 5.58414C2.63971 5.63908 2.57556 5.71719 2.53769 5.8086C2.49981 5.90002 2.48991 6.00061 2.50924 6.09765C2.52856 6.1947 2.57624 6.28382 2.64625 6.35375L7.64625 11.3538C7.69269 11.4002 7.74783 11.4371 7.80853 11.4623C7.86923 11.4874 7.93429 11.5004 8 11.5004C8.06571 11.5004 8.13077 11.4874 8.19147 11.4623C8.25217 11.4371 8.30731 11.4002 8.35375 11.3538L13.3538 6.35375C13.4237 6.28379 13.4712 6.19466 13.4905 6.09765C13.5097 6.00064 13.4998 5.9001 13.4619 5.80875Z" fill="currentColor"/>
    </g>
</svg>
