<svg width="16" height="16" viewBox="0 0 16 16" fill="none" xmlns="http://www.w3.org/2000/svg">
    <g clip-path="url(#clip0_1582_2695)">
        <path d="M13.3537 9.64628L8.35375 4.64628C8.30731 4.59979 8.25217 4.56291 8.19147 4.53775C8.13077 4.51259 8.0657 4.49963 8 4.49963C7.93429 4.49963 7.86923 4.51259 7.80853 4.53775C7.74783 4.56291 7.69268 4.59979 7.64625 4.64628L2.64625 9.64628C2.57624 9.7162 2.52856 9.80533 2.50923 9.90237C2.48991 9.99942 2.49981 10.1 2.53769 10.1914C2.57556 10.2828 2.63971 10.361 2.72201 10.4159C2.8043 10.4708 2.90105 10.5001 3 10.5H13C13.0989 10.5001 13.1957 10.4708 13.278 10.4159C13.3603 10.361 13.4244 10.2828 13.4623 10.1914C13.5002 10.1 13.5101 9.99942 13.4908 9.90237C13.4714 9.80533 13.4238 9.7162 13.3537 9.64628Z" fill="currentColor"/>
    </g>
</svg>
