<svg width="16" height="16" viewBox="0 0 16 16" fill="none" xmlns="http://www.w3.org/2000/svg">
    <path d="M14.5 4V12C14.5 12.2652 14.3946 12.5196 14.2071 12.7071C14.0196 12.8946 13.7652 13 13.5 13H5.1875L3.15 14.76L3.14438 14.7644C2.9644 14.917 2.73596 15.0005 2.5 15C2.3533 14.9997 2.20844 14.9673 2.07563 14.905C1.90288 14.8254 1.75672 14.6977 1.65464 14.5372C1.55256 14.3767 1.49887 14.1902 1.5 14V4C1.5 3.73478 1.60536 3.48043 1.79289 3.29289C1.98043 3.10536 2.23478 3 2.5 3H13.5C13.7652 3 14.0196 3.10536 14.2071 3.29289C14.3946 3.48043 14.5 3.73478 14.5 4Z"
          fill="currentColor"/>
</svg>
