<svg width="16" height="16" viewBox="0 0 16 16" fill="none" xmlns="http://www.w3.org/2000/svg">
    <path d="M13 2.5H2.99997C2.60214 2.5 2.22061 2.65804 1.93931 2.93934C1.658 3.22064 1.49997 3.60218 1.49997 4V11C1.49997 11.3978 1.658 11.7794 1.93931 12.0607C2.22061 12.342 2.60214 12.5 2.99997 12.5H7.49997V13.5H5.99997C5.86736 13.5 5.74018 13.5527 5.64642 13.6464C5.55265 13.7402 5.49997 13.8674 5.49997 14C5.49997 14.1326 5.55265 14.2598 5.64642 14.3536C5.74018 14.4473 5.86736 14.5 5.99997 14.5H9.99997C10.1326 14.5 10.2598 14.4473 10.3535 14.3536C10.4473 14.2598 10.5 14.1326 10.5 14C10.5 13.8674 10.4473 13.7402 10.3535 13.6464C10.2598 13.5527 10.1326 13.5 9.99997 13.5H8.49997V12.5H13C13.3978 12.5 13.7793 12.342 14.0606 12.0607C14.3419 11.7794 14.5 11.3978 14.5 11V4C14.5 3.60218 14.3419 3.22064 14.0606 2.93934C13.7793 2.65804 13.3978 2.5 13 2.5ZM13 11.5H2.99997C2.86736 11.5 2.74018 11.4473 2.64642 11.3536C2.55265 11.2598 2.49997 11.1326 2.49997 11V10H13.5V11C13.5 11.1326 13.4473 11.2598 13.3535 11.3536C13.2598 11.4473 13.1326 11.5 13 11.5Z"
          fill="currentColor"/>
</svg>
