<svg width="16" height="16" viewBox="0 0 16 16" fill="none" xmlns="http://www.w3.org/2000/svg">
    <path d="M14 4.5H13V4C13 3.60218 12.8419 3.22064 12.5606 2.93934C12.2793 2.65804 11.8978 2.5 11.5 2.5H2.49997C2.10214 2.5 1.72061 2.65804 1.43931 2.93934C1.158 3.22064 0.999969 3.60218 0.999969 4V10C0.999969 10.3978 1.158 10.7794 1.43931 11.0607C1.72061 11.342 2.10214 11.5 2.49997 11.5H9.49997V12C9.49997 12.3978 9.658 12.7794 9.93931 13.0607C10.2206 13.342 10.6021 13.5 11 13.5H14C14.3978 13.5 14.7793 13.342 15.0606 13.0607C15.3419 12.7794 15.5 12.3978 15.5 12V6C15.5 5.60218 15.3419 5.22064 15.0606 4.93934C14.7793 4.65804 14.3978 4.5 14 4.5ZM14.5 12C14.5 12.1326 14.4473 12.2598 14.3535 12.3536C14.2598 12.4473 14.1326 12.5 14 12.5H11C10.8674 12.5 10.7402 12.4473 10.6464 12.3536C10.5526 12.2598 10.5 12.1326 10.5 12V6C10.5 5.86739 10.5526 5.74021 10.6464 5.64645C10.7402 5.55268 10.8674 5.5 11 5.5H14C14.1326 5.5 14.2598 5.55268 14.3535 5.64645C14.4473 5.74021 14.5 5.86739 14.5 6V12ZM8.49997 13C8.49997 13.1326 8.44729 13.2598 8.35352 13.3536C8.25976 13.4473 8.13258 13.5 7.99997 13.5H5.49997C5.36736 13.5 5.24018 13.4473 5.14642 13.3536C5.05265 13.2598 4.99997 13.1326 4.99997 13C4.99997 12.8674 5.05265 12.7402 5.14642 12.6464C5.24018 12.5527 5.36736 12.5 5.49997 12.5H7.99997C8.13258 12.5 8.25976 12.5527 8.35352 12.6464C8.44729 12.7402 8.49997 12.8674 8.49997 13ZM13.5 7C13.5 7.13261 13.4473 7.25979 13.3535 7.35355C13.2598 7.44732 13.1326 7.5 13 7.5H12C11.8674 7.5 11.7402 7.44732 11.6464 7.35355C11.5526 7.25979 11.5 7.13261 11.5 7C11.5 6.86739 11.5526 6.74021 11.6464 6.64645C11.7402 6.55268 11.8674 6.5 12 6.5H13C13.1326 6.5 13.2598 6.55268 13.3535 6.64645C13.4473 6.74021 13.5 6.86739 13.5 7Z"
          fill="currentColor"/>
</svg>
