<svg width="16" height="16" viewBox="0 0 16 16" fill="none" xmlns="http://www.w3.org/2000/svg">
    <path d="M14.2381 4.1725L14.2331 4.17812L10 8.69812V12.1663C10.0002 12.3312 9.95968 12.4936 9.88193 12.6391C9.80418 12.7846 9.69165 12.9086 9.55437 13L7.55437 14.3337C7.40366 14.4341 7.22851 14.4917 7.04762 14.5003C6.86673 14.509 6.6869 14.4683 6.52731 14.3827C6.36773 14.2971 6.23439 14.1698 6.14151 14.0143C6.04864 13.8589 5.99973 13.6811 6 13.5V8.69812L1.76687 4.17812L1.76187 4.1725C1.63172 4.02926 1.54592 3.85133 1.5149 3.66029C1.48388 3.46924 1.50896 3.27331 1.5871 3.09624C1.66525 2.91917 1.7931 2.76859 1.95514 2.66275C2.11718 2.55692 2.30646 2.50038 2.5 2.5H13.5C13.6937 2.50002 13.8832 2.55629 14.0456 2.66199C14.2079 2.76768 14.336 2.91825 14.4144 3.09538C14.4928 3.27252 14.518 3.46861 14.487 3.65982C14.4561 3.85104 14.3703 4.02914 14.24 4.1725H14.2381Z"
          fill="currentColor"/>
</svg>
