<svg width="16" height="16" viewBox="0 0 16 16" fill="none" xmlns="http://www.w3.org/2000/svg">
    <path d="M11 14.5C11 14.6326 10.9473 14.7598 10.8535 14.8536C10.7598 14.9473 10.6326 15 10.5 15H5.49999C5.36738 15 5.24021 14.9473 5.14644 14.8536C5.05267 14.7598 4.99999 14.6326 4.99999 14.5C4.99999 14.3674 5.05267 14.2402 5.14644 14.1465C5.24021 14.0527 5.36738 14 5.49999 14H10.5C10.6326 14 10.7598 14.0527 10.8535 14.1465C10.9473 14.2402 11 14.3674 11 14.5ZM13.5 6.50001C13.5021 7.33354 13.3138 8.15654 12.9495 8.9062C12.5851 9.65587 12.0543 10.3124 11.3975 10.8256C11.2747 10.9198 11.175 11.0407 11.1061 11.1793C11.0372 11.3178 11.0009 11.4703 11 11.625V12C11 12.2652 10.8946 12.5196 10.7071 12.7071C10.5196 12.8947 10.2652 13 9.99999 13H5.99999C5.73477 13 5.48042 12.8947 5.29288 12.7071C5.10535 12.5196 4.99999 12.2652 4.99999 12V11.625C4.99989 11.4721 4.96474 11.3213 4.89723 11.1841C4.82973 11.047 4.73168 10.9271 4.61062 10.8338C3.95549 10.3235 3.42502 9.67097 3.05935 8.92545C2.69368 8.17993 2.5024 7.361 2.49999 6.53063C2.48374 3.55188 4.89124 1.07126 7.86749 1.00001C8.60083 0.982337 9.3303 1.11154 10.013 1.38002C10.6956 1.6485 11.3177 2.05082 11.8425 2.56332C12.3674 3.07581 12.7844 3.68811 13.069 4.36419C13.3537 5.04027 13.5002 5.76645 13.5 6.50001ZM11.4931 5.91626C11.3635 5.19207 11.015 4.52499 10.4948 4.00482C9.97449 3.48465 9.30733 3.13638 8.58312 3.00688C8.51836 2.99597 8.45208 2.99791 8.38808 3.01261C8.32407 3.02731 8.26359 3.05447 8.21008 3.09254C8.15657 3.13061 8.11108 3.17885 8.07621 3.2345C8.04135 3.29015 8.01778 3.35213 8.00687 3.41688C7.99595 3.48164 7.99789 3.54792 8.01259 3.61192C8.02729 3.67593 8.05445 3.73641 8.09252 3.78992C8.13059 3.84343 8.17883 3.88892 8.23448 3.92379C8.29013 3.95865 8.35211 3.98222 8.41687 3.99313C9.45249 4.16751 10.3312 5.04626 10.5069 6.08376C10.5267 6.20021 10.587 6.3059 10.6773 6.38209C10.7675 6.45828 10.8819 6.50005 11 6.50001C11.0282 6.49984 11.0565 6.49754 11.0844 6.49313C11.2151 6.47082 11.3315 6.39752 11.4082 6.28934C11.4848 6.18115 11.5154 6.04696 11.4931 5.91626Z"
          fill="currentColor"/>
</svg>
