<svg width="16" height="16" viewBox="0 0 16 16" fill="none" xmlns="http://www.w3.org/2000/svg">
    <path d="M10.5 6.99997C10.5 7.6922 10.2947 8.36889 9.91014 8.94447C9.52556 9.52004 8.97893 9.96864 8.33939 10.2335C7.69985 10.4985 6.99612 10.5678 6.31718 10.4327C5.63825 10.2977 5.01461 9.96433 4.52513 9.47484C4.03564 8.98536 3.7023 8.36172 3.56725 7.68279C3.4322 7.00385 3.50152 6.30012 3.76642 5.66058C4.03133 5.02104 4.47993 4.47441 5.0555 4.08983C5.63108 3.70524 6.30777 3.49997 7 3.49997C7.92826 3.49997 8.8185 3.86872 9.47487 4.5251C10.1313 5.18147 10.5 6.07171 10.5 6.99997ZM14.3538 14.3537C14.3073 14.4002 14.2522 14.4371 14.1915 14.4623C14.1308 14.4874 14.0657 14.5004 14 14.5004C13.9343 14.5004 13.8692 14.4874 13.8085 14.4623C13.7478 14.4371 13.6927 14.4002 13.6462 14.3537L10.5175 11.2243C9.42944 12.1295 8.03431 12.5804 6.62229 12.4832C5.21027 12.386 3.89007 11.7482 2.93631 10.7025C1.98254 9.65676 1.46863 8.28359 1.50146 6.86861C1.5343 5.45363 2.11136 4.10578 3.11261 3.10541C4.11387 2.10504 5.46223 1.52917 6.87724 1.49759C8.29224 1.466 9.66496 1.98113 10.7099 2.93582C11.7548 3.89051 12.3914 5.21127 12.4873 6.62337C12.5833 8.03548 12.1312 9.43021 11.225 10.5175L14.3538 13.6462C14.4002 13.6927 14.4371 13.7478 14.4623 13.8085C14.4874 13.8692 14.5004 13.9343 14.5004 14C14.5004 14.0657 14.4874 14.1307 14.4623 14.1914C14.4371 14.2521 14.4002 14.3073 14.3538 14.3537ZM7 11.5C7.89002 11.5 8.76004 11.2361 9.50007 10.7416C10.2401 10.2471 10.8169 9.54431 11.1575 8.72205C11.4981 7.89978 11.5872 6.99498 11.4135 6.12206C11.2399 5.24915 10.8113 4.44733 10.182 3.81799C9.55264 3.18865 8.75082 2.76007 7.87791 2.58644C7.00499 2.4128 6.10019 2.50192 5.27792 2.84251C4.45566 3.18311 3.75285 3.75988 3.25839 4.4999C2.76392 5.23993 2.5 6.10995 2.5 6.99997C2.50132 8.19304 2.97585 9.33686 3.81948 10.1805C4.66311 11.0241 5.80693 11.4986 7 11.5Z"
          fill="currentColor"/>
</svg>
