<svg width="16" height="16" viewBox="0 0 16 16" fill="none" xmlns="http://www.w3.org/2000/svg">
    <path d="M8 0.319946C3.7584 0.319946 0.32 3.75835 0.32 7.99995C0.32 12.2415 3.7584 15.6799 8 15.6799C12.2416 15.6799 15.68 12.2415 15.68 7.99995C15.68 3.75835 12.2416 0.319946 8 0.319946ZM4.9848 5.59995H11.0008C11.32 5.59995 11.1552 6.00955 10.9816 6.11435C10.808 6.21835 8.4056 7.67195 8.3152 7.72555C8.2248 7.77915 8.1096 7.80555 7.9928 7.80555C7.8804 7.80784 7.76942 7.78024 7.6712 7.72555L5.004 6.11435C4.8304 6.00955 4.6664 5.59995 4.9848 5.59995ZM11.2 9.99995C11.2 10.1679 10.9984 10.3999 10.8448 10.3999H5.1552C5.0016 10.3999 4.8 10.1679 4.8 9.99995V7.08235C4.8 7.00875 4.7984 6.91355 4.9376 6.99435L7.6712 8.60635C7.76768 8.66532 7.87994 8.69325 7.9928 8.68635C8.1096 8.68635 8.1944 8.67755 8.3152 8.60635L11.0624 6.99515C11.2016 6.91355 11.2 7.00955 11.2 7.08315V9.99995Z"
          fill="currentColor"/>
</svg>
