<svg width="16" height="16" viewBox="0 0 16 16" fill="none" xmlns="http://www.w3.org/2000/svg">
    <path d="M11 1H4.99997C4.60214 1 4.22061 1.15804 3.93931 1.43934C3.658 1.72064 3.49997 2.10218 3.49997 2.5V13.5C3.49997 13.8978 3.658 14.2794 3.93931 14.5607C4.22061 14.842 4.60214 15 4.99997 15H11C11.3978 15 11.7793 14.842 12.0606 14.5607C12.3419 14.2794 12.5 13.8978 12.5 13.5V2.5C12.5 2.10218 12.3419 1.72064 12.0606 1.43934C11.7793 1.15804 11.3978 1 11 1ZM9.99997 4H5.99997C5.86736 4 5.74018 3.94732 5.64642 3.85355C5.55265 3.75979 5.49997 3.63261 5.49997 3.5C5.49997 3.36739 5.55265 3.24021 5.64642 3.14645C5.74018 3.05268 5.86736 3 5.99997 3H9.99997C10.1326 3 10.2598 3.05268 10.3535 3.14645C10.4473 3.24021 10.5 3.36739 10.5 3.5C10.5 3.63261 10.4473 3.75979 10.3535 3.85355C10.2598 3.94732 10.1326 4 9.99997 4Z"
          fill="currentColor"/>
</svg>
