<svg width="16" height="16" viewBox="0 0 16 16" fill="none" xmlns="http://www.w3.org/2000/svg">
    <path d="M14.4925 10.9425C14.3811 11.7894 13.9651 12.5668 13.3224 13.1294C12.6797 13.6921 11.8542 14.0015 11 14C6.0375 14 2 9.9625 2 5C1.99847 4.1458 2.30793 3.32026 2.87058 2.67756C3.43324 2.03485 4.21061 1.61894 5.0575 1.5075C5.27166 1.48135 5.48853 1.52516 5.67574 1.63239C5.86295 1.73963 6.01046 1.90454 6.09625 2.1025L7.41625 5.04937V5.05687C7.48193 5.2084 7.50905 5.37385 7.4952 5.53842C7.48135 5.70299 7.42696 5.86157 7.33687 6C7.32562 6.01687 7.31375 6.0325 7.30125 6.04812L6 7.59062C6.46812 8.54187 7.46313 9.52812 8.42688 9.9975L9.94812 8.70312C9.96306 8.69056 9.97871 8.67888 9.995 8.66812C10.1333 8.57587 10.2924 8.51956 10.458 8.50428C10.6235 8.48901 10.7903 8.51524 10.9431 8.58062L10.9513 8.58437L13.8956 9.90375C14.0939 9.98923 14.2592 10.1366 14.3668 10.3238C14.4744 10.5111 14.5185 10.7281 14.4925 10.9425Z"
          fill="currentColor"/>
</svg>
