<svg width="16" height="16" viewBox="0 0 16 16" fill="none" xmlns="http://www.w3.org/2000/svg">
    <path d="M8 1.5C6.71442 1.5 5.45771 1.88122 4.38879 2.59545C3.31987 3.30968 2.48675 4.32484 1.99478 5.51256C1.50281 6.70028 1.37409 8.00721 1.62489 9.26809C1.8757 10.529 2.49476 11.6872 3.40381 12.5962C4.31285 13.5052 5.47104 14.1243 6.73191 14.3751C7.99279 14.6259 9.29972 14.4972 10.4874 14.0052C11.6752 13.5132 12.6903 12.6801 13.4046 11.6112C14.1188 10.5423 14.5 9.28558 14.5 8C14.4982 6.27665 13.8128 4.62441 12.5942 3.40582C11.3756 2.18722 9.72335 1.50182 8 1.5ZM10.5344 8.41125L7.28437 10.6613C7.20934 10.7131 7.12155 10.7435 7.0305 10.7491C6.93945 10.7546 6.84861 10.7352 6.76782 10.6928C6.68704 10.6505 6.61937 10.5868 6.57216 10.5088C6.52496 10.4307 6.5 10.3412 6.5 10.25V5.75C6.5 5.65878 6.52496 5.5693 6.57216 5.49124C6.61937 5.41319 6.68704 5.34954 6.76782 5.30718C6.84861 5.26482 6.93945 5.24537 7.0305 5.25094C7.12155 5.2565 7.20934 5.28687 7.28437 5.33875L10.5344 7.58875C10.6009 7.63475 10.6553 7.6962 10.6928 7.76783C10.7304 7.83946 10.75 7.91912 10.75 8C10.75 8.08088 10.7304 8.16054 10.6928 8.23217C10.6553 8.3038 10.6009 8.36525 10.5344 8.41125Z"
          fill="currentColor"/>
</svg>
