<svg width="16" height="16" viewBox="0 0 16 16" fill="none" xmlns="http://www.w3.org/2000/svg">
    <path d="M14.7081 6.50002L11.3663 9.85314C11.6513 10.645 11.7694 11.9713 10.5419 13.6031C10.456 13.7179 10.3464 13.8128 10.2206 13.8812C10.0947 13.9497 9.95549 13.9903 9.81251 14C9.78876 14 9.76564 14 9.74189 14C9.61049 14 9.48037 13.9742 9.35897 13.9239C9.23757 13.8736 9.12728 13.7998 9.03439 13.7069L6.01814 10.6875L3.35376 13.3538C3.25994 13.4476 3.1327 13.5003 3.00001 13.5003C2.86733 13.5003 2.74009 13.4476 2.64626 13.3538C2.55244 13.2599 2.49974 13.1327 2.49974 13C2.49974 12.8673 2.55244 12.7401 2.64626 12.6463L5.31252 9.98189L2.29377 6.96314C2.19454 6.86379 2.11735 6.74466 2.06722 6.6135C2.01709 6.48234 1.99514 6.34209 2.0028 6.20189C2.01047 6.06169 2.04757 5.92467 2.1117 5.79975C2.17583 5.67484 2.26555 5.56483 2.37501 5.47689C3.96376 4.19502 5.48439 4.44689 6.15001 4.65564L9.50001 1.29377C9.59288 1.20088 9.70313 1.1272 9.82447 1.07694C9.94581 1.02667 10.0759 1.00079 10.2072 1.00079C10.3385 1.00079 10.4686 1.02667 10.5899 1.07694C10.7113 1.1272 10.8215 1.20088 10.9144 1.29377L14.7075 5.08627C14.895 5.2737 15.0004 5.52791 15.0005 5.79301C15.0006 6.05812 14.8955 6.31242 14.7081 6.50002Z"
          fill="currentColor"/>
</svg>
