<svg width="16" height="16" viewBox="0 0 16 16" fill="none" xmlns="http://www.w3.org/2000/svg">
    <path d="M14.8538 7.35378L9.85375 12.3538C9.78382 12.4238 9.6947 12.4715 9.59765 12.4908C9.50061 12.5101 9.40002 12.5002 9.30861 12.4623C9.21719 12.4245 9.13908 12.3603 9.08414 12.278C9.0292 12.1957 8.99992 12.099 9 12V9.5144C5.43125 9.7169 2.98438 12.0313 2.2975 12.7644C2.18964 12.8796 2.04821 12.9578 1.89331 12.988C1.73842 13.0181 1.57797 12.9986 1.43479 12.9323C1.2916 12.866 1.17299 12.7562 1.09583 12.6185C1.01866 12.4809 0.98688 12.3224 1.005 12.1657C1.23688 10.1494 2.34125 8.21003 4.115 6.70503C5.58813 5.45503 7.37875 4.6619 9 4.52315V2.00003C8.99992 1.90108 9.0292 1.80433 9.08414 1.72204C9.13908 1.63974 9.21719 1.57559 9.30861 1.53772C9.40002 1.49984 9.50061 1.48994 9.59765 1.50926C9.6947 1.52859 9.78382 1.57627 9.85375 1.64628L14.8538 6.64628C14.9002 6.69271 14.9371 6.74786 14.9623 6.80856C14.9874 6.86926 15.0004 6.93432 15.0004 7.00003C15.0004 7.06574 14.9874 7.1308 14.9623 7.1915C14.9371 7.2522 14.9002 7.30734 14.8538 7.35378Z"
          fill="currentColor"/>
</svg>
