<svg width="16" height="16" viewBox="0 0 16 16" fill="none" xmlns="http://www.w3.org/2000/svg">
    <path d="M13 9C13.0013 9.20386 12.9393 9.40311 12.8227 9.57033C12.7061 9.73754 12.5405 9.86451 12.3487 9.93375L9.12499 11.125L7.93749 14.3512C7.86717 14.5423 7.73994 14.7072 7.57297 14.8236C7.406 14.9401 7.20732 15.0025 7.00374 15.0025C6.80017 15.0025 6.60149 14.9401 6.43452 14.8236C6.26755 14.7072 6.14032 14.5423 6.06999 14.3512L4.87499 11.125L1.64874 9.9375C1.4577 9.86718 1.29282 9.73995 1.17636 9.57298C1.0599 9.406 0.997452 9.20733 0.997452 9.00375C0.997452 8.80017 1.0599 8.6015 1.17636 8.43452C1.29282 8.26755 1.4577 8.14032 1.64874 8.07L4.87499 6.875L6.06249 3.64875C6.13282 3.45771 6.26005 3.29283 6.42702 3.17637C6.59399 3.0599 6.79267 2.99746 6.99624 2.99746C7.19982 2.99746 7.3985 3.0599 7.56547 3.17637C7.73244 3.29283 7.85967 3.45771 7.92999 3.64875L9.12499 6.875L12.3512 8.0625C12.5431 8.13237 12.7086 8.26008 12.8248 8.42801C12.941 8.59594 13.0022 8.7958 13 9ZM9.49999 3H10.5V4C10.5 4.13261 10.5527 4.25979 10.6464 4.35355C10.7402 4.44732 10.8674 4.5 11 4.5C11.1326 4.5 11.2598 4.44732 11.3535 4.35355C11.4473 4.25979 11.5 4.13261 11.5 4V3H12.5C12.6326 3 12.7598 2.94732 12.8535 2.85355C12.9473 2.75979 13 2.63261 13 2.5C13 2.36739 12.9473 2.24021 12.8535 2.14645C12.7598 2.05268 12.6326 2 12.5 2H11.5V1C11.5 0.867392 11.4473 0.740215 11.3535 0.646447C11.2598 0.552678 11.1326 0.5 11 0.5C10.8674 0.5 10.7402 0.552678 10.6464 0.646447C10.5527 0.740215 10.5 0.867392 10.5 1V2H9.49999C9.36738 2 9.24021 2.05268 9.14644 2.14645C9.05267 2.24021 8.99999 2.36739 8.99999 2.5C8.99999 2.63261 9.05267 2.75979 9.14644 2.85355C9.24021 2.94732 9.36738 3 9.49999 3ZM15 5H14.5V4.5C14.5 4.36739 14.4473 4.24021 14.3535 4.14645C14.2598 4.05268 14.1326 4 14 4C13.8674 4 13.7402 4.05268 13.6464 4.14645C13.5527 4.24021 13.5 4.36739 13.5 4.5V5H13C12.8674 5 12.7402 5.05268 12.6464 5.14645C12.5527 5.24021 12.5 5.36739 12.5 5.5C12.5 5.63261 12.5527 5.75979 12.6464 5.85355C12.7402 5.94732 12.8674 6 13 6H13.5V6.5C13.5 6.63261 13.5527 6.75979 13.6464 6.85355C13.7402 6.94732 13.8674 7 14 7C14.1326 7 14.2598 6.94732 14.3535 6.85355C14.4473 6.75979 14.5 6.63261 14.5 6.5V6H15C15.1326 6 15.2598 5.94732 15.3535 5.85355C15.4473 5.75979 15.5 5.63261 15.5 5.5C15.5 5.36739 15.4473 5.24021 15.3535 5.14645C15.2598 5.05268 15.1326 5 15 5Z"
          fill="currentColor"/>
</svg>
