<svg width="16" height="16" viewBox="0 0 16 16" fill="none" xmlns="http://www.w3.org/2000/svg">
    <path d="M7.62703 3.9623C7.75904 3.62171 8.24096 3.62171 8.37297 3.9623L9.17053 6.02012C9.22728 6.16655 9.36447 6.26622 9.52127 6.27494L11.7248 6.39757C12.0895 6.41787 12.2385 6.8762 11.9553 7.107L10.2447 8.50142C10.123 8.60064 10.0706 8.76192 10.1107 8.91374L10.675 11.0473C10.7684 11.4005 10.3786 11.6837 10.0716 11.4858L8.21677 10.2898C8.08479 10.2047 7.91521 10.2047 7.78323 10.2898L5.92844 11.4858C5.62145 11.6837 5.23156 11.4005 5.32497 11.0473L5.88928 8.91374C5.92943 8.76192 5.87703 8.60064 5.75531 8.50142L4.04467 7.107C3.76154 6.8762 3.91046 6.41787 4.27518 6.39757L6.47873 6.27494C6.63553 6.26622 6.77272 6.16655 6.82947 6.02012L7.62703 3.9623Z"
          fill="currentColor"/>
</svg>
