<svg width="16" height="16" viewBox="0 0 16 16" fill="none" xmlns="http://www.w3.org/2000/svg">
    <path d="M10.2794 12.2269C10.3286 12.3024 10.3565 12.3897 10.3601 12.4797C10.3638 12.5697 10.3431 12.659 10.3002 12.7382C10.2573 12.8174 10.1938 12.8835 10.1165 12.9296C10.0391 12.9757 9.95069 13 9.86063 13.0001H0.639375C0.54931 13 0.46092 12.9757 0.383544 12.9296C0.306168 12.8835 0.242678 12.8174 0.199784 12.7382C0.156889 12.659 0.136183 12.5697 0.139851 12.4797C0.143519 12.3897 0.171427 12.3024 0.220625 12.2269C0.924441 11.1436 1.95968 10.3168 3.17188 9.87006C2.50175 9.42393 1.99298 8.77398 1.72081 8.01634C1.44864 7.25869 1.42751 6.43357 1.66056 5.663C1.8936 4.89242 2.36844 4.21729 3.01486 3.73745C3.66128 3.25761 4.44495 2.99854 5.25 2.99854C6.05505 2.99854 6.83872 3.25761 7.48514 3.73745C8.13156 4.21729 8.6064 4.89242 8.83944 5.663C9.07249 6.43357 9.05136 7.25869 8.77919 8.01634C8.50702 8.77398 7.99825 9.42393 7.32812 9.87006C8.54032 10.3168 9.57556 11.1436 10.2794 12.2269ZM15.7738 12.2176C15.0697 11.1388 14.0368 10.3156 12.8281 9.87006C13.6192 9.33715 14.1776 8.52281 14.3894 7.59277C14.6013 6.66274 14.4508 5.68692 13.9685 4.86395C13.4863 4.04098 12.7085 3.43271 11.7936 3.16295C10.8787 2.89319 9.89534 2.98223 9.04375 3.41193C9.01119 3.42875 8.98272 3.45251 8.96036 3.48155C8.938 3.51059 8.9223 3.54419 8.91437 3.57997C8.90644 3.61575 8.90647 3.65283 8.91446 3.6886C8.92246 3.72436 8.93822 3.75793 8.96062 3.78693C9.59386 4.57681 9.95752 5.54871 9.99834 6.56025C10.0392 7.5718 9.75502 8.56984 9.1875 9.40818C9.15082 9.46297 9.13726 9.53003 9.14979 9.59476C9.16232 9.65949 9.1999 9.71666 9.25438 9.75381C9.99431 10.2702 10.6277 10.9245 11.12 11.6807C11.3185 11.9847 11.3996 12.3506 11.3481 12.7101C11.3423 12.7458 11.3444 12.7824 11.3541 12.8173C11.3639 12.8522 11.3811 12.8845 11.4045 12.9121C11.428 12.9397 11.4572 12.9618 11.4901 12.977C11.523 12.9922 11.5588 13.0001 11.595 13.0001H15.3638C15.4739 13.0001 15.5809 12.9638 15.6682 12.8968C15.7556 12.8298 15.8184 12.7358 15.8469 12.6294C15.8643 12.5595 15.8667 12.4867 15.8541 12.4157C15.8415 12.3448 15.8141 12.2772 15.7738 12.2176Z"
          fill="currentColor"/>
</svg>
