<svg width="16" height="16" viewBox="0 0 16 16" fill="none" xmlns="http://www.w3.org/2000/svg">
<g clip-path="url(#clip0_1582_2697)">
    <path d="M10.1913 2.53811C10.0999 2.50021 9.99936 2.49025 9.90235 2.5095C9.80534 2.52874 9.71621 2.57633 9.64625 2.64623L4.64625 7.64623C4.59976 7.69267 4.56288 7.74781 4.53772 7.80851C4.51256 7.86921 4.49961 7.93427 4.49961 7.99998C4.49961 8.06569 4.51256 8.13075 4.53772 8.19145C4.56288 8.25215 4.59976 8.3073 4.64625 8.35373L9.64625 13.3537C9.71618 13.4237 9.8053 13.4714 9.90235 13.4907C9.99939 13.5101 10.1 13.5002 10.1914 13.4623C10.2828 13.4244 10.3609 13.3603 10.4159 13.278C10.4708 13.1957 10.5001 13.0989 10.5 13V2.99998C10.5 2.90109 10.4706 2.80443 10.4157 2.72222C10.3607 2.64 10.2826 2.57593 10.1913 2.53811Z" fill="currentColor"/>
</g>
<defs>
    <clipPath id="clip0_1582_2697">
        <rect width="16" height="16" fill="white"/>
    </clipPath>
</defs>
</svg>
