<svg width="16" height="16" viewBox="0 0 16 16" fill="none" xmlns="http://www.w3.org/2000/svg">
    <g clip-path="url(#clip0_1582_2842)">
        <path d="M14.7075 11.25L12.4425 8.98433L10.1637 1.4662C10.099 1.25213 9.98243 1.05733 9.8244 0.899059C9.66637 0.74079 9.47174 0.623939 9.25777 0.558855C9.04379 0.493772 8.81706 0.482465 8.59767 0.525937C8.37828 0.569409 8.17299 0.666318 8 0.808079C7.82701 0.666318 7.62172 0.569409 7.40233 0.525937C7.18294 0.482465 6.95621 0.493772 6.74223 0.558855C6.52825 0.623939 6.33363 0.74079 6.1756 0.899059C6.01757 1.05733 5.90101 1.25213 5.83625 1.4662L3.5575 8.98495L1.2925 11.25C1.1051 11.4375 0.999838 11.6917 0.999838 11.9568C0.999838 12.2219 1.1051 12.4762 1.2925 12.6637L3.33562 14.7068C3.42849 14.7997 3.53874 14.8734 3.66008 14.9237C3.78142 14.9739 3.91147 14.9998 4.04281 14.9998C4.17415 14.9998 4.30421 14.9739 4.42555 14.9237C4.54689 14.8734 4.65714 14.7997 4.75 14.7068L7.7675 11.6875C7.85115 11.6036 7.92884 11.514 8 11.4193C8.07116 11.514 8.14885 11.6036 8.2325 11.6875L11.25 14.7075C11.3429 14.8003 11.4531 14.874 11.5745 14.9243C11.6958 14.9746 11.8258 15.0004 11.9572 15.0004C12.0885 15.0004 12.2186 14.9746 12.3399 14.9243C12.4613 14.874 12.5715 14.8003 12.6644 14.7075L14.7075 12.6643C14.8004 12.5715 14.8741 12.4612 14.9243 12.3399C14.9746 12.2185 15.0005 12.0885 15.0005 11.9571C15.0005 11.8258 14.9746 11.6957 14.9243 11.5744C14.8741 11.4531 14.8004 11.3428 14.7075 11.25ZM7.5 9.92183C7.501 10.1191 7.46284 10.3145 7.38774 10.4969C7.31264 10.6793 7.20209 10.845 7.0625 10.9843L5.5425 12.5L3.5 10.4575L4.35312 9.6037C4.41134 9.54548 4.45428 9.47377 4.47812 9.39495L6.79062 1.7562C6.81408 1.6712 6.86782 1.59772 6.9417 1.54959C7.01559 1.50147 7.10453 1.48203 7.19175 1.49494C7.27898 1.50785 7.35847 1.55222 7.41525 1.61969C7.47203 1.68715 7.50217 1.77305 7.5 1.8612V9.92183ZM10.465 12.5081L8.9375 10.9825C8.79791 10.8431 8.68736 10.6774 8.61226 10.4951C8.53716 10.3127 8.499 10.1172 8.5 9.91995V1.85745C8.50002 1.77086 8.53115 1.68715 8.58771 1.62158C8.64428 1.55601 8.72252 1.51294 8.80817 1.50022C8.89383 1.4875 8.9812 1.50597 9.05439 1.55226C9.12757 1.59856 9.18168 1.6696 9.20687 1.75245L11.5194 9.3912C11.5432 9.47002 11.5862 9.54173 11.6444 9.59995L12.55 10.5056L10.465 12.5081Z" fill="currentColor"/>
    </g>
    <defs>
        <clipPath id="clip0_1582_2842">
            <rect width="16" height="16" fill="white"/>
        </clipPath>
    </defs>
</svg>
