<svg width="16" height="16" viewBox="0 0 16 16" fill="none" xmlns="http://www.w3.org/2000/svg">
    <g clip-path="url(#clip0_1582_2802)">
        <path d="M7.62703 0.962306C7.75904 0.62171 8.24096 0.621709 8.37297 0.962305L9.92877 4.97648C9.98552 5.12291 10.1227 5.22259 10.2795 5.23131L14.578 5.47052C14.9427 5.49082 15.0916 5.94915 14.8085 6.17995L11.4716 8.90005C11.3498 8.99928 11.2974 9.16055 11.3376 9.31237L12.4384 13.4744C12.5318 13.8275 12.1419 14.1108 11.8349 13.9128L8.21677 11.5798C8.08479 11.4947 7.91521 11.4947 7.78323 11.5798L4.16508 13.9128C3.85809 14.1108 3.46821 13.8275 3.56161 13.4744L4.66241 9.31237C4.70257 9.16055 4.65017 8.99928 4.52844 8.90005L1.1915 6.17995C0.908368 5.94915 1.05729 5.49082 1.42201 5.47052L5.72049 5.23131C5.87729 5.22259 6.01448 5.12291 6.07123 4.97648L7.62703 0.962306Z" fill="currentColor"/>
    </g>
    <defs>
        <clipPath id="clip0_1582_2802">
            <rect width="16" height="16" fill="white"/>
        </clipPath>
    </defs>
</svg>
