<svg width="16" height="16" viewBox="0 0 16 16" fill="none" xmlns="http://www.w3.org/2000/svg">
    <path d="M6 12C6 12.5304 6.21071 13.0391 6.58579 13.4142C6.96086 13.7893 7.46957 14 8 14C8.53043 14 9.03914 13.7893 9.41421 13.4142C9.78929 13.0391 10 12.5304 10 12"
          stroke="currentColor" stroke-linecap="round" stroke-linejoin="round"/>
    <path d="M3.50001 6.5C3.50001 5.30653 3.97412 4.16193 4.81803 3.31802C5.66195 2.47411 6.80654 2 8.00001 2C9.19349 2 10.3381 2.47411 11.182 3.31802C12.0259 4.16193 12.5 5.30653 12.5 6.5C12.5 8.73875 13.0188 10.5375 13.4313 11.25C13.4751 11.3259 13.4982 11.4119 13.4983 11.4996C13.4983 11.5872 13.4754 11.6733 13.4317 11.7492C13.388 11.8252 13.3252 11.8883 13.2494 11.9324C13.1736 11.9764 13.0876 11.9997 13 12H3.00001C2.9125 11.9995 2.82666 11.976 2.75107 11.9319C2.67548 11.8878 2.61278 11.8246 2.56926 11.7487C2.52573 11.6728 2.50289 11.5868 2.50302 11.4992C2.50315 11.4117 2.52625 11.3258 2.57001 11.25C2.98189 10.5375 3.50001 8.73813 3.50001 6.5Z"
          stroke="currentColor" stroke-linecap="round" stroke-linejoin="round"/>
</svg>
