<svg width="16" height="16" viewBox="0 0 16 16" fill="none" xmlns="http://www.w3.org/2000/svg">
    <path d="M10.5 14L7 11.5L3.5 14V4.5C3.5 4.36739 3.55268 4.24021 3.64645 4.14645C3.74021 4.05268 3.86739 4 4 4H10C10.1326 4 10.2598 4.05268 10.3536 4.14645C10.4473 4.24021 10.5 4.36739 10.5 4.5V14Z"
          stroke="currentColor" stroke-linecap="round" stroke-linejoin="round"/>
    <path d="M5.5 4V2.5C5.5 2.36739 5.55268 2.24021 5.64645 2.14645C5.74021 2.05268 5.86739 2 6 2H12C12.1326 2 12.2598 2.05268 12.3536 2.14645C12.4473 2.24021 12.5 2.36739 12.5 2.5V12L10.5 10.5719"
          stroke="currentColor" stroke-linecap="round" stroke-linejoin="round"/>
</svg>
