<svg width="16" height="16" viewBox="0 0 16 16" fill="none" xmlns="http://www.w3.org/2000/svg">
    <path fill-rule="evenodd" clip-rule="evenodd"
          d="M8 16C12.4183 16 16 12.4183 16 8C16 3.58172 12.4183 0 8 0C3.58172 0 0 3.58172 0 8C0 12.4183 3.58172 16 8 16ZM10.6877 4.01588C10.7083 4.06553 10.719 4.11878 10.719 4.17256V4.30589H5.25229V11.085H5.11634C5.06256 11.0853 5.00925 11.075 4.95946 11.0547C4.90968 11.0343 4.86441 11.0044 4.82626 10.9664C4.78811 10.9285 4.75784 10.8835 4.73718 10.8338C4.71652 10.7842 4.70588 10.7309 4.70588 10.6771V4.17256C4.70588 4.11878 4.71652 4.06553 4.73718 4.01588C4.75784 3.96622 4.78811 3.92115 4.82626 3.88324C4.86441 3.84533 4.90968 3.81535 4.95946 3.79501C5.00925 3.77466 5.06256 3.76437 5.11634 3.76471H10.3085C10.3623 3.76437 10.4156 3.77466 10.4654 3.79501C10.5152 3.81535 10.5604 3.84533 10.5986 3.88324C10.6367 3.92115 10.667 3.96622 10.6877 4.01588ZM6.14379 4.81047H11.3725C11.5891 4.81047 11.7647 4.98604 11.7647 5.20262V11.7386C11.7647 11.9552 11.5891 12.1307 11.3725 12.1307H6.14379C5.92721 12.1307 5.75163 11.9552 5.75163 11.7386V5.20262C5.75163 4.98604 5.92721 4.81047 6.14379 4.81047Z"
          fill="currentColor"/>
</svg>
