<svg width="16" height="16" viewBox="0 0 16 16" fill="none" xmlns="http://www.w3.org/2000/svg">
    <path d="M7 1.5H9C9.13261 1.5 9.25979 1.55268 9.35355 1.64645C9.44732 1.74021 9.5 1.86739 9.5 2V5H12.5C12.6326 5 12.7598 5.05268 12.8536 5.14645C12.9473 5.24021 13 5.36739 13 5.5V7.5C13 7.63261 12.9473 7.75979 12.8536 7.85355C12.7598 7.94732 12.6326 8 12.5 8H9.5V14C9.5 14.1326 9.44732 14.2598 9.35355 14.3536C9.25979 14.4473 9.13261 14.5 9 14.5H7C6.86739 14.5 6.74021 14.4473 6.64645 14.3536C6.55268 14.2598 6.5 14.1326 6.5 14V8H3.5C3.36739 8 3.24021 7.94732 3.14645 7.85355C3.05268 7.75979 3 7.63261 3 7.5V5.5C3 5.36739 3.05268 5.24021 3.14645 5.14645C3.24021 5.05268 3.36739 5 3.5 5H6.5V2C6.5 1.86739 6.55268 1.74021 6.64645 1.64645C6.74021 1.55268 6.86739 1.5 7 1.5Z"
          stroke="currentColor" stroke-linecap="round" stroke-linejoin="round"/>
</svg>
