<svg width="16" height="16" viewBox="0 0 16 16" fill="currentColor" xmlns="http://www.w3.org/2000/svg">
    <path d="M10.3211 4.74179H9.19772C9.08867 4.74966 8.9854 4.79377 8.9044 4.86721C8.8234 4.94064 8.76934 5.03916 8.75085 5.14692V6.30178H10.3183C10.2549 7.18635 10.1263 7.99653 10.1263 7.99653H8.74287V13.0137H6.68171V7.99653H5.67829V6.3075H6.68171V4.92692C6.68171 4.67377 6.63086 2.98397 8.796 2.98397H10.3234L10.3211 4.74179ZM8 -0.00109863C6.41775 -0.00109863 4.87103 0.468064 3.55544 1.34712C2.23984 2.22617 1.21447 3.47557 0.608972 4.93738C0.0034711 6.39919 -0.154962 8.00774 0.15372 9.55959C0.462401 11.1114 1.22434 12.5369 2.34316 13.6557C3.46198 14.7745 4.88743 15.5365 6.43928 15.8452C7.99113 16.1538 9.59966 15.9954 11.0615 15.3899C12.5233 14.7844 13.7727 13.759 14.6518 12.4434C15.5308 11.1278 16 9.58115 16 7.9989C15.9997 5.87737 15.1567 3.84283 13.6565 2.34279C12.1562 0.842747 10.1215 1.7417e-05 8 1.74387e-05V-0.00109863Z" fill="black"/>
</svg>
