<svg width="16" height="16" viewBox="0 0 16 16" fill="none" xmlns="http://www.w3.org/2000/svg">
    <path d="M8 10.5C9.38071 10.5 10.5 9.38071 10.5 8C10.5 6.61929 9.38071 5.5 8 5.5C6.61929 5.5 5.5 6.61929 5.5 8C5.5 9.38071 6.61929 10.5 8 10.5Z"
          stroke="currentColor" stroke-linecap="round" stroke-linejoin="round"/>
    <path d="M8.12813 12.8819C8.04438 12.8819 7.96 12.8819 7.87813 12.8819L5.875 14C5.0952 13.7377 4.37192 13.3306 3.74313 12.8L3.73563 10.55C3.69125 10.48 3.64938 10.4094 3.61063 10.3369L1.61875 9.2025C1.46186 8.40893 1.46186 7.59232 1.61875 6.79875L3.60875 5.6675C3.64938 5.59563 3.69125 5.52437 3.73375 5.45437L3.74375 3.20438C4.37198 2.67228 5.09508 2.26365 5.875 2L7.875 3.11812C7.95875 3.11812 8.04313 3.11812 8.125 3.11812L10.125 2C10.9048 2.2623 11.6281 2.66943 12.2569 3.2L12.2644 5.45C12.3088 5.52 12.3506 5.59063 12.3894 5.66313L14.38 6.79688C14.5369 7.59044 14.5369 8.40706 14.38 9.20063L12.39 10.3319C12.3494 10.4037 12.3075 10.475 12.265 10.545L12.255 12.795C11.6272 13.3272 10.9045 13.736 10.125 14L8.12813 12.8819Z"
          stroke="currentColor" stroke-linecap="round" stroke-linejoin="round"/>
</svg>
