<svg width="16" height="16" viewBox="0 0 16 16" fill="none" xmlns="http://www.w3.org/2000/svg">
    <path d="M8.86125 1C9.0464 0.999456 9.22679 1.05863 9.37564 1.16875C9.52448 1.27886 9.63385 1.43405 9.6875 1.61125L12 9.25L13.2669 10.5169L10.4544 13.2044L8.58313 11.3331C8.20975 10.9583 8.00008 10.4509 8 9.92188V1.85938C8.0005 1.63129 8.09145 1.41271 8.25292 1.25159C8.41438 1.09048 8.63316 1 8.86125 1Z"
          stroke="currentColor" stroke-linecap="round" stroke-linejoin="round"/>
    <path d="M10.4569 13.2069L11.6038 14.3537C11.6975 14.4474 11.8246 14.5001 11.9572 14.5001C12.0897 14.5001 12.2169 14.4474 12.3106 14.3537L14.3538 12.3125C14.4474 12.2187 14.5001 12.0916 14.5001 11.9591C14.5001 11.8265 14.4474 11.6994 14.3538 11.6056L13.2069 10.4587"
          stroke="currentColor" stroke-linecap="round" stroke-linejoin="round"/>
    <path d="M7.41438 11.3356L5.54313 13.2069L2.79313 10.4569L4 9.25L6.3125 1.61125C6.36615 1.43405 6.47552 1.27886 6.62436 1.16875C6.77321 1.05863 6.9536 0.999456 7.13875 1C7.36717 1 7.58623 1.09074 7.74775 1.25226C7.90926 1.41377 8 1.63284 8 1.86125V9.92375C7.99942 10.4534 7.78882 10.9611 7.41438 11.3356Z"
          stroke="currentColor" stroke-linecap="round" stroke-linejoin="round"/>
    <path d="M2.79313 10.4569L1.64625 11.6038C1.55255 11.6975 1.49992 11.8247 1.49992 11.9572C1.49992 12.0898 1.55255 12.2169 1.64625 12.3107L3.6875 14.3538C3.78126 14.4475 3.90839 14.5001 4.04094 14.5001C4.17349 14.5001 4.30062 14.4475 4.39438 14.3538L5.54125 13.2069"
          stroke="currentColor" stroke-linecap="round" stroke-linejoin="round"/>
</svg>
