<svg width="16" height="16" viewBox="0 0 16 16" fill="none" xmlns="http://www.w3.org/2000/svg">
    <g clip-path="url(#clip0_1574_2561)">
        <path d="M7.5 7.5C7.63261 7.5 7.75979 7.55268 7.85355 7.64645C7.94732 7.74021 8 7.86739 8 8V10.5C8 10.6326 8.05268 10.7598 8.14645 10.8536C8.24021 10.9473 8.36739 11 8.5 11" stroke="currentColor" stroke-linecap="round" stroke-linejoin="round"/>
        <path d="M7.75 5.75C8.02614 5.75 8.25 5.52614 8.25 5.25C8.25 4.97386 8.02614 4.75 7.75 4.75C7.47386 4.75 7.25 4.97386 7.25 5.25C7.25 5.52614 7.47386 5.75 7.75 5.75Z" fill="currentColor"/>
        <path d="M8 14C11.3137 14 14 11.3137 14 8C14 4.68629 11.3137 2 8 2C4.68629 2 2 4.68629 2 8C2 11.3137 4.68629 14 8 14Z" stroke="currentColor" stroke-linecap="round" stroke-linejoin="round"/>
    </g>
</svg>
