<svg width="16" height="16" viewBox="0 0 16 16" fill="none" xmlns="http://www.w3.org/2000/svg">
    <path d="M11.2483 5.5425C11.1789 5.36271 11.0726 5.19945 10.9363 5.06324C10.7999 4.92703 10.6365 4.8209 10.4567 4.75167C10.209 4.65994 9.94742 4.61145 9.68334 4.60833C9.24417 4.58833 9.1125 4.58333 8 4.58333C6.8875 4.58333 6.75584 4.58833 6.31667 4.60833C6.0523 4.61136 5.79043 4.65984 5.5425 4.75167C5.36271 4.82108 5.19945 4.92739 5.06324 5.06375C4.92704 5.2001 4.8209 5.36347 4.75167 5.54333C4.65994 5.791 4.61146 6.05258 4.60834 6.31667C4.58834 6.75583 4.58334 6.8875 4.58334 8C4.58334 9.1125 4.58834 9.24417 4.60834 9.68333C4.61136 9.9477 4.65985 10.2096 4.75167 10.4575C4.82109 10.6373 4.9274 10.8005 5.06375 10.9368C5.2001 11.073 5.36347 11.1791 5.54334 11.2483C5.791 11.3401 6.05258 11.3885 6.31667 11.3917C6.75584 11.4117 6.8875 11.4158 8 11.4158C9.1125 11.4158 9.24417 11.4117 9.68334 11.3908C9.94765 11.3881 10.2095 11.3399 10.4575 11.2483C10.6373 11.1789 10.8006 11.0726 10.9368 10.9363C11.073 10.7999 11.1791 10.6365 11.2483 10.4567C11.3401 10.209 11.3885 9.94742 11.3917 9.68333C11.4117 9.24417 11.4158 9.1125 11.4158 8C11.4158 6.8875 11.4117 6.75583 11.3908 6.31667C11.3881 6.05235 11.3399 5.79047 11.2483 5.5425ZM8 10.14C7.57675 10.14 7.163 10.0145 6.81108 9.77934C6.45916 9.5442 6.18487 9.20997 6.0229 8.81894C5.86093 8.42791 5.81855 7.99762 5.90112 7.5825C5.98369 7.16739 6.18751 6.78607 6.48679 6.48679C6.78608 6.18751 7.16739 5.98369 7.58251 5.90112C7.99763 5.81855 8.42791 5.86093 8.81894 6.0229C9.20998 6.18487 9.5442 6.45916 9.77935 6.81108C10.0145 7.163 10.14 7.57675 10.14 8C10.14 8.56756 9.91454 9.11188 9.51321 9.51321C9.11188 9.91454 8.56757 10.14 8 10.14ZM10.2242 6.27583C10.1253 6.27583 10.0286 6.24651 9.94638 6.19157C9.86416 6.13663 9.80007 6.05854 9.76223 5.96717C9.72439 5.87581 9.71448 5.77528 9.73378 5.67829C9.75307 5.5813 9.80069 5.49221 9.87062 5.42228C9.94054 5.35235 10.0296 5.30473 10.1266 5.28544C10.2236 5.26615 10.3241 5.27605 10.4155 5.31389C10.5069 5.35174 10.585 5.41582 10.6399 5.49805C10.6948 5.58027 10.7242 5.67694 10.7242 5.77583C10.7242 5.90844 10.6715 6.03562 10.5777 6.12939C10.484 6.22315 10.3568 6.27583 10.2242 6.27583ZM9.38917 8C9.38917 8.27475 9.3077 8.54333 9.15505 8.77178C9.00241 9.00023 8.78545 9.17828 8.53161 9.28342C8.27778 9.38856 7.99846 9.41607 7.72899 9.36247C7.45952 9.30887 7.21199 9.17657 7.01771 8.98229C6.82343 8.78801 6.69113 8.54048 6.63753 8.27101C6.58393 8.00154 6.61144 7.72222 6.71658 7.46839C6.82172 7.21455 6.99978 6.99759 7.22822 6.84495C7.45667 6.69231 7.72525 6.61083 8 6.61083C8.36843 6.61083 8.72177 6.75719 8.98229 7.01771C9.24281 7.27823 9.38917 7.63157 9.38917 8ZM8 0C6.41775 0 4.87103 0.469192 3.55544 1.34824C2.23985 2.22729 1.21447 3.47672 0.608967 4.93853C0.00346629 6.40034 -0.15496 8.00887 0.153721 9.56072C0.462403 11.1126 1.22433 12.538 2.34315 13.6569C3.46197 14.7757 4.88743 15.5376 6.43928 15.8463C7.99113 16.155 9.59966 15.9965 11.0615 15.391C12.5233 14.7855 13.7727 13.7602 14.6518 12.4446C15.5308 11.129 16 9.58225 16 8C16 5.87827 15.1571 3.84344 13.6569 2.34315C12.1566 0.842855 10.1217 0 8 0ZM12.1417 9.7175C12.1346 10.0633 12.069 10.4053 11.9475 10.7292C11.8405 11.0059 11.6768 11.2572 11.467 11.467C11.2572 11.6768 11.0059 11.8405 10.7292 11.9475C10.4056 12.0689 10.0638 12.1345 9.71834 12.1417C9.27334 12.1617 9.13167 12.1667 8 12.1667C6.86834 12.1667 6.72667 12.1617 6.28167 12.1417C5.93617 12.1345 5.59439 12.0689 5.27084 11.9475C4.9941 11.8405 4.74278 11.6768 4.53298 11.467C4.32318 11.2572 4.15952 11.0059 4.0525 10.7292C3.93114 10.4056 3.86549 10.0638 3.85834 9.71833C3.83834 9.27333 3.83334 9.13167 3.83334 8C3.83334 6.86833 3.83834 6.72667 3.85834 6.28167C3.86522 5.93622 3.93059 5.59444 4.05167 5.27083C4.15868 4.99387 4.32242 4.74233 4.53238 4.53238C4.74234 4.32242 4.99387 4.15868 5.27084 4.05167C5.59444 3.93058 5.93622 3.86522 6.28167 3.85833C6.72667 3.83833 6.86834 3.83333 8 3.83333C9.13167 3.83333 9.27334 3.83833 9.71834 3.85833C10.0638 3.86522 10.4056 3.93058 10.7292 4.05167C11.006 4.15878 11.2574 4.32256 11.4672 4.53251C11.677 4.74246 11.8406 4.99395 11.9475 5.27083C12.0689 5.59439 12.1345 5.93617 12.1417 6.28167C12.1617 6.72667 12.1667 6.86833 12.1667 8C12.1667 9.13167 12.1617 9.2725 12.1417 9.7175Z"
          fill="currentColor"/>
</svg>
