<svg width="16" height="16" viewBox="0 0 16 16" fill="none" xmlns="http://www.w3.org/2000/svg">
    <path d="M8.79702 7.07685H8.80929V7.05759L8.79702 7.07685ZM8.79702 7.07685H8.80929V7.05759L8.79702 7.07685ZM8.79702 7.07685H8.80929V7.05759L8.79702 7.07685ZM8.79702 7.07685H8.80929V7.05759L8.79702 7.07685ZM8.79702 7.07685H8.80929V7.05759L8.79702 7.07685ZM8.79702 7.07685H8.80929V7.05759L8.79702 7.07685ZM8.79702 7.07685H8.80929V7.05759L8.79702 7.07685ZM8.79702 7.07685H8.80929V7.05759L8.79702 7.07685ZM8.79702 7.07685H8.80929V7.05759L8.79702 7.07685ZM8.79702 7.07685H8.80929V7.05759L8.79702 7.07685ZM8.79702 7.07685H8.80929V7.05759L8.79702 7.07685ZM8.79702 7.07685H8.80929V7.05759L8.79702 7.07685ZM8.79702 7.07685H8.80929V7.05759L8.79702 7.07685ZM8.79702 7.07685H8.80929V7.05759L8.79702 7.07685ZM8.79702 7.07685H8.80929V7.05759L8.79702 7.07685ZM8.79702 7.07685H8.80929V7.05759L8.79702 7.07685ZM8 0C6.41775 0 4.87103 0.469192 3.55544 1.34824C2.23985 2.22729 1.21447 3.47672 0.608967 4.93853C0.00346618 6.40034 -0.15496 8.00887 0.153721 9.56072C0.462403 11.1126 1.22433 12.538 2.34315 13.6569C3.46197 14.7757 4.88743 15.5376 6.43928 15.8463C7.99113 16.155 9.59966 15.9965 11.0615 15.391C12.5233 14.7855 13.7727 13.7602 14.6518 12.4446C15.5308 11.129 16 9.58225 16 8C15.9977 5.87898 15.1541 3.84549 13.6543 2.34571C12.1545 0.845917 10.121 0.00231831 8 0ZM5.99957 11.6015C5.9991 11.637 5.98469 11.6708 5.95944 11.6957C5.9342 11.7206 5.90016 11.7346 5.86468 11.7346H4.32319C4.28788 11.7346 4.25402 11.7206 4.22905 11.6956C4.20409 11.6707 4.19006 11.6368 4.19006 11.6015V6.42172C4.18983 6.40409 4.1931 6.38659 4.19969 6.37024C4.20627 6.35388 4.21604 6.339 4.22843 6.32645C4.24081 6.3139 4.25557 6.30394 4.27184 6.29714C4.2881 6.29034 4.30556 6.28684 4.32319 6.28684H5.86468C5.8824 6.28684 5.89994 6.29033 5.9163 6.29711C5.93267 6.30388 5.94753 6.31382 5.96006 6.32634C5.97258 6.33887 5.98252 6.35374 5.9893 6.3701C5.99608 6.38647 5.99957 6.40401 5.99957 6.42172V11.6015ZM5.03963 5.59492C4.84805 5.59492 4.66076 5.53811 4.50146 5.43167C4.34216 5.32522 4.218 5.17394 4.14468 4.99693C4.07137 4.81993 4.05218 4.62516 4.08956 4.43725C4.12694 4.24934 4.2192 4.07674 4.35467 3.94126C4.49014 3.80579 4.66275 3.71353 4.85065 3.67616C5.03856 3.63878 5.23333 3.65796 5.41034 3.73128C5.58734 3.8046 5.73863 3.92876 5.84507 4.08806C5.95151 4.24736 6.00832 4.43464 6.00832 4.62623C6.00855 4.75351 5.98366 4.87957 5.93506 4.9972C5.88646 5.11484 5.81511 5.22171 5.72512 5.31171C5.63512 5.40171 5.52824 5.47305 5.41061 5.52165C5.29298 5.57025 5.16691 5.59515 5.03963 5.59492ZM12.5229 11.6015C12.5224 11.637 12.508 11.6708 12.4828 11.6957C12.4575 11.7206 12.4235 11.7346 12.388 11.7346H10.8465C10.829 11.7346 10.8117 11.7312 10.7956 11.7245C10.7794 11.7178 10.7647 11.708 10.7524 11.6956C10.74 11.6833 10.7302 11.6686 10.7235 11.6524C10.7168 11.6363 10.7134 11.619 10.7134 11.6015V8.81804C10.7134 8.08583 10.4524 7.59185 9.79724 7.59185C9.5931 7.59299 9.3943 7.65724 9.2281 7.77578C9.06189 7.89432 8.93641 8.06135 8.86884 8.25399C8.82266 8.39637 8.80249 8.5459 8.80929 8.69542V11.6015C8.80929 11.6373 8.79508 11.6716 8.76978 11.6969C8.74449 11.7222 8.71018 11.7364 8.67441 11.7364H7.13291C7.11528 11.7364 7.09783 11.7329 7.08156 11.7261C7.06529 11.7193 7.05054 11.7093 7.03815 11.6968C7.02577 11.6842 7.016 11.6693 7.00941 11.653C7.00282 11.6366 6.99955 11.6191 6.99978 11.6015C6.99978 10.8623 7.01905 7.27304 6.99978 6.42873C6.99955 6.4111 7.00282 6.3936 7.00941 6.37724C7.016 6.36089 7.02577 6.346 7.03815 6.33346C7.05054 6.32091 7.06529 6.31094 7.08156 6.30414C7.09783 6.29735 7.11528 6.29384 7.13291 6.29385H8.6709C8.68868 6.29361 8.70633 6.29694 8.7228 6.30363C8.73927 6.31033 8.75423 6.32025 8.7668 6.33283C8.77937 6.3454 8.7893 6.36036 8.796 6.37683C8.80269 6.3933 8.80602 6.41095 8.80578 6.42873V7.06459C8.96963 6.78016 9.20825 6.54603 9.49575 6.38762C9.78325 6.2292 10.1086 6.15255 10.4366 6.16597C11.626 6.16597 12.5194 6.94373 12.5194 8.61835L12.5229 11.6015ZM8.80929 7.08211V7.06284L8.79702 7.08211H8.80929ZM8.79702 7.08211H8.80929V7.06284L8.79702 7.08211ZM8.79702 7.08211H8.80929V7.06284L8.79702 7.08211ZM8.79702 7.08211H8.80929V7.06284L8.79702 7.08211ZM8.79702 7.08211H8.80929V7.06284L8.79702 7.08211ZM8.79702 7.08211H8.80929V7.06284L8.79702 7.08211ZM8.79702 7.08211H8.80929V7.06284L8.79702 7.08211ZM8.79702 7.08211H8.80929V7.06284L8.79702 7.08211ZM8.79702 7.08211H8.80929V7.06284L8.79702 7.08211ZM8.79702 7.08211H8.80929V7.06284L8.79702 7.08211ZM8.79702 7.08211H8.80929V7.06284L8.79702 7.08211ZM8.79702 7.08211H8.80929V7.06284L8.79702 7.08211ZM8.79702 7.08211H8.80929V7.06284L8.79702 7.08211ZM8.79702 7.08211H8.80929V7.06284L8.79702 7.08211ZM8.79702 7.08211H8.80929V7.06284L8.79702 7.08211Z"
          fill="currentColor"/>
</svg>