<svg width="16" height="16" viewBox="0 0 16 16" fill="none" xmlns="http://www.w3.org/2000/svg">
    <path d="M6 10L10 6" stroke="currentColor" stroke-linecap="round" stroke-linejoin="round"/>
    <path d="M7 4.75686L8.87875 2.88186C9.44291 2.32682 10.2035 2.01719 10.9949 2.02041C11.7864 2.02363 12.5444 2.33945 13.104 2.89907C13.6637 3.45868 13.9795 4.21676 13.9827 5.00817C13.9859 5.79958 13.6763 6.5602 13.1213 7.12436L11.2425 8.99999"
          stroke="currentColor" stroke-linecap="round" stroke-linejoin="round"/>
    <path d="M4.75688 7L2.88188 8.87875C2.32683 9.44291 2.0172 10.2035 2.02043 10.9949C2.02365 11.7864 2.33946 12.5444 2.89908 13.104C3.4587 13.6637 4.21677 13.9795 5.00819 13.9827C5.7996 13.9859 6.56022 13.6763 7.12438 13.1213L9 11.2425"
          stroke="currentColor" stroke-linecap="round" stroke-linejoin="round"/>
</svg>
