<svg width="16" height="16" viewBox="0 0 16 16" fill="none" xmlns="http://www.w3.org/2000/svg">
    <path d="M5.41209 12.5884V12.3671L5.66562 12.2195C5.72901 12.1773 5.78183 12.1351 5.82408 12.093C5.86634 12.0508 5.89972 11.9964 5.92444 11.9296C5.94894 11.8629 5.96479 11.7786 5.97197 11.6765C5.97895 11.5747 5.98254 11.4429 5.98254 11.2812V9.35202C5.98254 9.1553 5.98064 8.99359 5.97726 8.86708C5.97366 8.74058 5.97007 8.63516 5.96669 8.55082C5.9631 8.46648 5.95613 8.39459 5.94556 8.33471C5.935 8.27504 5.91915 8.21706 5.89803 8.16076C5.77126 7.75321 5.39097 7.54932 4.75714 7.54932C4.57397 7.54932 4.39079 7.56703 4.20783 7.60203C4.02465 7.63724 3.85922 7.68995 3.71133 7.76016V11.2812C3.71133 11.4429 3.71471 11.5747 3.72189 11.6765C3.72886 11.7786 3.74471 11.8629 3.76943 11.9296C3.79394 11.9964 3.82753 12.0508 3.86979 12.093C3.91204 12.1351 3.96486 12.1773 4.02824 12.2195L4.28177 12.3671V12.5884H2V12.3671L2.27466 12.2195C2.33804 12.1845 2.39086 12.1457 2.43311 12.1035C2.47537 12.0613 2.50706 12.0069 2.52819 11.9401C2.54932 11.8735 2.56326 11.7872 2.57044 11.6818C2.57742 11.5764 2.58101 11.4429 2.58101 11.2812V8.39269C2.58101 8.2451 2.57742 8.12387 2.57044 8.02899C2.56326 7.93411 2.54741 7.85694 2.52291 7.79706C2.49819 7.73739 2.46481 7.68995 2.42255 7.65474C2.3803 7.61974 2.32748 7.58812 2.26409 7.55987L2 7.45444V7.22252L3.67964 6.75867V7.53878C3.94014 7.27186 4.21121 7.07493 4.49305 6.94842C4.77468 6.82192 5.088 6.75867 5.43322 6.75867C5.66562 6.75867 5.89084 6.79219 6.1093 6.85882C6.32755 6.92565 6.5177 7.03993 6.67975 7.20143C6.7782 7.2999 6.85933 7.41228 6.92271 7.53878C6.98609 7.66529 7.03532 7.83059 7.0706 8.03426C7.09173 8.16076 7.10399 8.31025 7.10758 8.4823C7.11096 8.65455 7.11286 8.85654 7.11286 9.08847V11.2812C7.11286 11.4429 7.11624 11.5764 7.12342 11.6818C7.1304 11.7872 7.14455 11.8735 7.16568 11.9401C7.18681 12.0069 7.2185 12.0613 7.26075 12.1035C7.30301 12.1457 7.35583 12.1845 7.41921 12.2195L7.69387 12.3671V12.5884H5.41209Z"
          fill="currentColor"/>
    <path d="M11.5927 5.82018C11.5927 5.52418 11.5731 5.32179 11.5341 5.21345C11.4948 5.10511 11.4079 5.02212 11.273 4.96426L11.0173 4.85592V4.56339L13.3934 4V10.8257C13.3934 11.1219 13.4128 11.324 13.452 11.4324C13.491 11.5407 13.5779 11.6239 13.713 11.6816L13.9687 11.7899V12.0824L11.6246 12.6458V11.7899C11.3689 12.0933 11.1113 12.3119 10.8521 12.4454C10.5928 12.5789 10.2961 12.6458 9.96243 12.6458C9.30182 12.6458 8.7957 12.3949 8.44408 11.8928C8.09247 11.391 7.91666 10.6777 7.91666 9.75305C7.91666 9.24037 7.97334 8.77991 8.08714 8.37167C8.20072 7.96365 8.36417 7.61695 8.57727 7.33157C8.79037 7.04641 9.05142 6.82777 9.36042 6.67609C9.66942 6.52441 10.0157 6.44857 10.3993 6.44857C10.8538 6.44857 11.2517 6.56775 11.5927 6.8061V5.82018ZM11.1132 7.33699C10.2182 7.33699 9.77064 8.08109 9.77064 9.56887C9.77064 10.2839 9.86824 10.7986 10.0637 11.1128C10.2589 11.427 10.5732 11.5841 11.0066 11.5841C11.2197 11.5841 11.4149 11.5444 11.5927 11.4649V7.41283C11.4435 7.36234 11.2837 7.33699 11.1132 7.33699Z"
          fill="currentColor"/>
</svg>
