<svg width="16" height="16" viewBox="0 0 16 16" fill="none" xmlns="http://www.w3.org/2000/svg">
    <path d="M5.79313 13.5H3C2.86739 13.5 2.74021 13.4473 2.64645 13.3536C2.55268 13.2598 2.5 13.1326 2.5 13V10.2069C2.50006 10.0745 2.55266 9.94747 2.64625 9.85377L10.3538 2.14627C10.4475 2.05257 10.5746 1.99994 10.7072 1.99994C10.8397 1.99994 10.9669 2.05257 11.0606 2.14627L13.8538 4.93752C13.9474 5.03128 14.0001 5.15841 14.0001 5.29096C14.0001 5.42351 13.9474 5.55064 13.8538 5.64439L6.14625 13.3538C6.05255 13.4474 5.92556 13.5 5.79313 13.5Z"
          stroke="currentColor" stroke-linecap="round" stroke-linejoin="round"/>
    <path d="M8.5 4L12 7.5" stroke="currentColor" stroke-linecap="round" stroke-linejoin="round"/>
</svg>
