<svg width="16" height="16" viewBox="0 0 16 16" fill="none" xmlns="http://www.w3.org/2000/svg">
    <path d="M14.3538 6.14627C14.4475 6.05251 14.5001 5.92538 14.5001 5.79283C14.5001 5.66028 14.4475 5.53315 14.3538 5.43939L10.5625 1.64627C10.4688 1.55257 10.3416 1.49994 10.2091 1.49994C10.0765 1.49994 9.9494 1.55257 9.85564 1.64627L6.27439 5.23752C6.27439 5.23752 4.54001 4.37064 2.68751 5.86564C2.63258 5.90962 2.58755 5.96469 2.55536 6.02726C2.52317 6.08983 2.50455 6.15849 2.50071 6.22875C2.49688 6.29901 2.50792 6.36928 2.53311 6.43499C2.5583 6.50069 2.59707 6.56033 2.64689 6.61002L9.39064 13.3531C9.44115 13.4033 9.50177 13.4421 9.56847 13.4669C9.63517 13.4917 9.70639 13.502 9.77739 13.4971C9.84839 13.4922 9.91752 13.4722 9.98016 13.4384C10.0428 13.4046 10.0975 13.3579 10.1406 13.3013C10.665 12.6038 11.4888 11.1706 10.7725 9.73877L14.3538 6.14627Z"
          stroke="currentColor" stroke-linecap="round" stroke-linejoin="round"/>
    <path d="M6.01813 9.98187L3 13" stroke="currentColor" stroke-linecap="round" stroke-linejoin="round"/>
</svg>
