<svg width="16" height="16" viewBox="0 0 16 16" fill="none" xmlns="http://www.w3.org/2000/svg">
    <path d="M5.26687 10.7331L1.82374 9.46434C1.7288 9.42929 1.64689 9.36599 1.58903 9.28296C1.53117 9.19993 1.50015 9.10116 1.50015 8.99996C1.50015 8.89876 1.53117 8.79999 1.58903 8.71696C1.64689 8.63393 1.7288 8.57063 1.82374 8.53559L5.26687 7.26684L6.53562 3.82371C6.57066 3.72877 6.63396 3.64686 6.71699 3.589C6.80002 3.53114 6.89879 3.50012 6.99999 3.50012C7.10119 3.50012 7.19996 3.53114 7.28299 3.589C7.36602 3.64686 7.42933 3.72877 7.46437 3.82371L8.73312 7.26684L12.1762 8.53559C12.2712 8.57063 12.3531 8.63393 12.411 8.71696C12.4688 8.79999 12.4998 8.89876 12.4998 8.99996C12.4998 9.10116 12.4688 9.19993 12.411 9.28296C12.3531 9.36599 12.2712 9.42929 12.1762 9.46434L8.73312 10.7331L7.46437 14.1762C7.42933 14.2712 7.36602 14.3531 7.28299 14.4109C7.19996 14.4688 7.10119 14.4998 6.99999 14.4998C6.89879 14.4998 6.80002 14.4688 6.71699 14.4109C6.63396 14.3531 6.57066 14.2712 6.53562 14.1762L5.26687 10.7331Z"
          stroke="currentColor" stroke-linecap="round" stroke-linejoin="round"/>
    <path d="M11 1V4" stroke="currentColor" stroke-linecap="round" stroke-linejoin="round"/>
    <path d="M14 4.5V6.5" stroke="currentColor" stroke-linecap="round" stroke-linejoin="round"/>
    <path d="M9.5 2.5H12.5" stroke="currentColor" stroke-linecap="round" stroke-linejoin="round"/>
    <path d="M13 5.5H15" stroke="currentColor" stroke-linecap="round" stroke-linejoin="round"/>
</svg>
