<svg width="16" height="16" viewBox="0 0 16 16" fill="none" xmlns="http://www.w3.org/2000/svg">

    <path d="M5 10.5H2C1.86739 10.5 1.74021 10.4473 1.64645 10.3536C1.55268 10.2598 1.5 10.1326 1.5 10V6C1.5 5.86739 1.55268 5.74021 1.64645 5.64645C1.74021 5.55268 1.86739 5.5 2 5.5H5L9.5 2V14L5 10.5Z"
          stroke="currentColor" stroke-linecap="round" stroke-linejoin="round"/>
    <path d="M5 5.5V10.5" stroke="currentColor" stroke-linecap="round" stroke-linejoin="round"/>
    <path d="M12 6.6781C12.3217 7.04332 12.4991 7.5133 12.4991 7.99998C12.4991 8.48665 12.3217 8.95663 12 9.32185"
          stroke="currentColor" stroke-linecap="round" stroke-linejoin="round"/>
    <path d="M13.8544 5C14.5923 5.82503 15.0003 6.8931 15.0003 8C15.0003 9.1069 14.5923 10.175 13.8544 11"
          stroke="currentColor" stroke-linecap="round" stroke-linejoin="round"/>

</svg>
