<svg width="16" height="16" viewBox="0 0 16 16" fill="none" xmlns="http://www.w3.org/2000/svg">
    <path fill-rule="evenodd" clip-rule="evenodd"
          d="M16 8C16 12.4183 12.4183 16 8 16C3.58172 16 0 12.4183 0 8C0 3.58172 3.58172 0 8 0C12.4183 0 16 3.58172 16 8ZM13 5.96296V7.81481C13 7.91304 12.9595 8.00725 12.8873 8.07671C12.8152 8.14616 12.7174 8.18519 12.6154 8.18519C11.8119 8.18698 11.02 8.00095 10.3077 7.64306V9.48148C10.3077 10.4147 9.92273 11.3096 9.23751 11.9694C8.55228 12.6293 7.62291 13 6.65385 13C5.68479 13 4.75542 12.6293 4.07019 11.9694C3.38496 11.3096 3 10.4147 3 9.48148C3 7.77315 4.29375 6.26296 6.00962 5.96852C6.06497 5.95904 6.12181 5.96137 6.17613 5.97533C6.23045 5.9893 6.28093 6.01456 6.32401 6.04934C6.3671 6.08412 6.40174 6.12758 6.4255 6.17664C6.44926 6.22571 6.46156 6.27919 6.46154 6.33333V8.30972C6.46156 8.37982 6.44093 8.44848 6.40204 8.50773C6.36314 8.56698 6.30759 8.61439 6.24183 8.64444C6.08636 8.71544 5.95353 8.82531 5.85719 8.96258C5.76084 9.09986 5.70451 9.25952 5.69408 9.4249C5.68364 9.59028 5.71948 9.75533 5.79786 9.90283C5.87623 10.0503 5.99427 10.1749 6.13966 10.2635C6.28506 10.3521 6.45247 10.4015 6.62445 10.4066C6.79643 10.4116 6.96667 10.3721 7.11742 10.2923C7.26816 10.2124 7.39388 10.095 7.48147 9.95241C7.56906 9.8098 7.61531 9.64717 7.61538 9.48148V3.37037C7.61538 3.27214 7.65591 3.17794 7.72804 3.10848C7.80017 3.03902 7.89799 3 8 3H9.92308C10.0251 3 10.1229 3.03902 10.195 3.10848C10.2672 3.17794 10.3077 3.27214 10.3077 3.37037C10.3083 3.95955 10.5517 4.52443 10.9843 4.94104C11.4169 5.35766 12.0035 5.59198 12.6154 5.59259C12.7174 5.59259 12.8152 5.63161 12.8873 5.70107C12.9595 5.77053 13 5.86473 13 5.96296Z"
          fill="currentColor"/>
</svg>