<svg width="16" height="16" viewBox="0 0 16 16" fill="none" xmlns="http://www.w3.org/2000/svg">
    <path d="M4.20273 8.59045H4.837V12.0234H5.43706V8.59045H6.08312V8.0282H4.20273V8.59045Z" fill="currentColor"/>
    <path d="M9.27656 9.01005C9.07817 9.01005 8.89305 9.11841 8.71905 9.33283V8.02795H8.17972V12.0233H8.71905V11.7349C8.8996 11.9577 9.08456 12.0644 9.27656 12.0644C9.49115 12.0644 9.63551 11.9514 9.70753 11.7298C9.74371 11.6036 9.7622 11.4054 9.7622 11.1299V9.94452C9.7622 9.66265 9.74371 9.46591 9.70753 9.34626C9.63568 9.12299 9.49098 9.01005 9.27656 9.01005ZM9.22254 11.1721C9.22254 11.4412 9.14365 11.5738 8.98782 11.5738C8.89927 11.5738 8.80908 11.5314 8.71889 11.4411V9.62681C8.80908 9.5376 8.89927 9.49537 8.98782 9.49537C9.14348 9.49537 9.22254 9.63319 9.22254 9.90163V11.1721Z"
          fill="currentColor"/>
    <path d="M7.17324 11.3214C7.05359 11.4905 6.94048 11.5738 6.83212 11.5738C6.7601 11.5738 6.71902 11.5314 6.70592 11.4476C6.70101 11.4303 6.70101 11.3645 6.70101 11.2381V9.04639H6.16151V11.4C6.16151 11.6103 6.17968 11.7524 6.20915 11.8427C6.26332 11.9937 6.38314 12.0644 6.55664 12.0644C6.75519 12.0644 6.95881 11.9446 7.17324 11.6987V12.0235H7.71306V9.04639H7.17324V11.3214Z"
          fill="currentColor"/>
    <path d="M7.63629 6.29622C7.81193 6.29622 7.89622 6.15692 7.89622 5.87866V4.61323C7.89622 4.33481 7.81193 4.19617 7.63629 4.19617C7.4605 4.19617 7.37604 4.33497 7.37604 4.61323V5.87866C7.37604 6.15709 7.4605 6.29622 7.63629 6.29622Z"
          fill="currentColor"/>
    <path d="M8 0C3.58171 0 0 3.58171 0 8C0 12.4183 3.58171 16 8 16C12.4183 16 16 12.4183 16 8C16 3.58171 12.4183 0 8 0ZM8.88978 3.74179H9.43337V5.95675C9.43337 6.08458 9.43337 6.15087 9.43992 6.16872C9.45187 6.25318 9.49475 6.29639 9.56775 6.29639C9.67677 6.29639 9.79118 6.21193 9.91214 6.04121V3.74179H10.4572V6.75012H9.91214V6.4221C9.6951 6.6709 9.4882 6.79153 9.28933 6.79153C9.11386 6.79153 8.99274 6.72033 8.93807 6.5681C8.90795 6.47693 8.88978 6.33305 8.88978 6.12076V3.74179ZM6.83098 4.72274C6.83098 4.4011 6.88565 4.16606 7.00153 4.014C7.15229 3.80825 7.36458 3.70545 7.6363 3.70545C7.90932 3.70545 8.12145 3.80825 8.2722 4.014C8.38645 4.16589 8.44112 4.4011 8.44112 4.72274V5.7762C8.44112 6.09604 8.38645 6.33322 8.2722 6.48364C8.12145 6.6889 7.90932 6.79153 7.6363 6.79153C7.36458 6.79153 7.15229 6.6889 7.00153 6.48364C6.88565 6.33322 6.83098 6.09588 6.83098 5.7762V4.72274ZM5.37322 2.71321L5.80239 4.29848L6.21471 2.71321H6.82607L6.09882 5.11525V6.75028H5.49451V5.11525C5.43967 4.82553 5.31871 4.4011 5.12475 3.83804C4.9974 3.46337 4.86465 3.08755 4.73731 2.71321H5.37322ZM12.3067 12.2862C12.1973 12.7607 11.8092 13.111 11.3419 13.1632C10.2349 13.2868 9.11517 13.2874 7.99951 13.2868C6.88434 13.2874 5.76393 13.2868 4.65727 13.1632C4.18995 13.111 3.8017 12.7609 3.69269 12.2862C3.53702 11.6104 3.53702 10.8723 3.53702 10.1763C3.53702 9.48035 3.53899 8.74247 3.69449 8.06645C3.80366 7.59177 4.19159 7.24149 4.65891 7.18944C5.76573 7.06586 6.88597 7.06521 8.00147 7.06586C9.11664 7.06521 10.2369 7.06586 11.3437 7.18944C11.811 7.24166 12.1993 7.59177 12.3088 8.06645C12.464 8.74247 12.463 9.48035 12.463 10.1763C12.463 10.8723 12.4623 11.6104 12.3067 12.2862Z"
          fill="currentColor"/>
    <path d="M10.9946 9.01013C10.7186 9.01013 10.5043 9.11145 10.3485 9.31524C10.2341 9.46582 10.1819 9.69858 10.1819 10.0166V11.0594C10.1819 11.3758 10.2403 11.6102 10.3552 11.7593C10.5109 11.9626 10.7258 12.0643 11.008 12.0643C11.2897 12.0643 11.5108 11.9577 11.6601 11.7415C11.7256 11.6459 11.7681 11.5377 11.7861 11.4182C11.7912 11.3642 11.7976 11.2446 11.7976 11.0706V10.9922H11.2475C11.2475 11.2082 11.2404 11.3282 11.2357 11.3575C11.2049 11.5017 11.1273 11.5737 10.9946 11.5737C10.8093 11.5737 10.7186 11.4362 10.7186 11.1609V10.6329H11.7976V10.0163C11.7976 9.69825 11.7437 9.4655 11.6306 9.31491C11.4799 9.11162 11.2653 9.01013 10.9946 9.01013ZM11.2584 10.1841H10.7189V9.90859C10.7189 9.63327 10.8094 9.49562 10.9897 9.49562C11.1681 9.49562 11.2584 9.63344 11.2584 9.90859V10.1841Z"
          fill="currentColor"/>
</svg>
